<svg width="30" height="30" viewBox="0 0 512 512" fill="#9a9cab" xmlns="http://www.w3.org/2000/svg">
<g clip-path="url(#clip0_872_221)">
<path d="M511.5 369.21L455.5 222.89C454.801 221.065 453.417 219.584 451.642 218.764C449.868 217.944 447.843 217.85 446 218.5L387 239.55C386.053 239.89 385.183 240.417 384.443 241.099C383.702 241.781 383.107 242.605 382.691 243.522C382.275 244.438 382.047 245.429 382.021 246.436C381.995 247.442 382.172 248.443 382.54 249.38L387.67 262.38L347.41 281.5L281.33 269.09C274.894 267.887 268.28 268.024 261.9 269.494C255.52 270.963 249.511 273.733 244.25 277.63L232.44 286.39L224.62 280.76C218.718 276.534 211.93 273.707 204.773 272.494C197.615 271.281 190.275 271.714 183.31 273.76L157.95 281.31L124.73 261.45L129.5 249.39C129.868 248.453 130.045 247.452 130.019 246.446C129.993 245.439 129.766 244.448 129.35 243.532C128.934 242.615 128.338 241.791 127.598 241.109C126.857 240.427 125.988 239.9 125.04 239.56L66.0002 218.5C64.1543 217.844 62.1249 217.935 60.3458 218.756C58.5667 219.576 57.1792 221.06 56.4802 222.89L0.500159 369.21C-0.193942 371.012 -0.165356 373.012 0.57995 374.794C1.32526 376.575 2.7297 378 4.50016 378.77L60.5002 402.9C61.4226 403.299 62.4158 403.508 63.4207 403.515C64.4255 403.522 65.4216 403.327 66.3497 402.942C67.2778 402.557 68.1191 401.989 68.8234 401.272C69.5278 400.556 70.081 399.705 70.4502 398.77L76.0902 384.5L122.51 410.66C119.382 415.202 117.942 420.694 118.438 426.187C118.935 431.679 121.338 436.824 125.23 440.73C127.42 442.921 130.02 444.657 132.883 445.839C135.745 447.022 138.813 447.627 141.91 447.62H142.5C143.025 453.488 145.729 458.945 150.079 462.918C154.429 466.89 160.109 469.089 166 469.08H166.61C167.085 474.593 169.494 479.761 173.41 483.67C175.6 485.861 178.2 487.597 181.063 488.779C183.925 489.962 186.993 490.567 190.09 490.56H190.68C191.077 495.03 192.741 499.293 195.476 502.85C198.211 506.407 201.905 509.11 206.123 510.641C210.341 512.171 214.908 512.467 219.288 511.493C223.668 510.519 227.679 508.315 230.85 505.14L239.76 496.24L251.82 505.24C256.929 509.048 263.242 510.882 269.596 510.404C275.95 509.927 281.918 507.169 286.4 502.64L287.25 501.78C291.036 497.916 293.549 492.985 294.45 487.65C298.962 488.924 303.732 488.974 308.27 487.795C312.807 486.616 316.949 484.25 320.27 480.94L320.89 480.32C325.098 476.12 327.756 470.617 328.43 464.71C332.977 466.065 337.806 466.162 342.403 464.991C347.001 463.82 351.195 461.425 354.54 458.06L354.96 457.64C359.063 453.574 361.694 448.258 362.44 442.53C366.488 443.496 370.708 443.489 374.753 442.511C378.798 441.533 382.554 439.61 385.714 436.901C388.873 434.193 391.346 430.774 392.931 426.926C394.516 423.077 395.166 418.908 394.83 414.76C394.699 413.152 394.421 411.558 394 410L437.59 388.66L441.59 398.74C441.957 399.677 442.509 400.529 443.213 401.248C443.917 401.966 444.758 402.535 445.687 402.92C446.616 403.306 447.613 403.5 448.619 403.492C449.624 403.483 450.618 403.272 451.54 402.87L507.54 378.74C509.296 377.962 510.686 376.54 511.423 374.766C512.16 372.992 512.188 371.003 511.5 369.21ZM59.3302 386.07L17.0802 367.85L67.8502 235.1L80.3002 239.53L56.3002 307.75C55.6371 309.628 55.7472 311.692 56.6061 313.489C57.465 315.285 59.0024 316.667 60.8802 317.33C62.7579 317.993 64.8221 317.883 66.6187 317.024C68.4153 316.165 69.7971 314.628 70.4602 312.75L94.4002 244.6L112.65 251.11L59.3302 386.07ZM148 430.12C146.381 431.675 144.217 432.534 141.973 432.513C139.728 432.492 137.58 431.594 135.99 430.01C134.399 428.426 133.492 426.282 133.462 424.038C133.432 421.793 134.282 419.626 135.83 418L151.83 402C153.033 400.801 154.565 399.986 156.231 399.656C157.897 399.326 159.624 399.497 161.193 400.148C162.762 400.798 164.103 401.898 165.048 403.31C165.992 404.722 166.498 406.382 166.5 408.08C166.504 409.209 166.283 410.326 165.851 411.369C165.418 412.411 164.782 413.356 163.98 414.15L148 430.12ZM173.42 450.28C172.97 450.72 172.57 451.19 172.17 451.66L172.09 451.57C171.3 452.398 170.352 453.059 169.302 453.515C168.253 453.971 167.123 454.213 165.979 454.227C164.834 454.24 163.699 454.025 162.639 453.593C161.579 453.162 160.616 452.523 159.807 451.714C158.997 450.905 158.357 449.943 157.925 448.883C157.493 447.823 157.276 446.688 157.289 445.544C157.301 444.4 157.542 443.269 157.997 442.219C158.453 441.17 159.113 440.221 159.94 439.43L174.62 424.76C175.06 424.32 175.48 423.86 175.88 423.39L175.95 423.46C177.572 421.909 179.737 421.053 181.982 421.078C184.226 421.102 186.372 422.004 187.96 423.591C189.548 425.177 190.451 427.322 190.478 429.567C190.504 431.811 189.65 433.977 188.1 435.6L173.42 450.28ZM196.14 473C194.505 474.468 192.37 475.254 190.174 475.196C187.978 475.137 185.887 474.24 184.332 472.688C182.777 471.135 181.876 469.046 181.815 466.85C181.753 464.654 182.535 462.517 184 460.88L200 444.88C200.776 444.001 201.724 443.29 202.785 442.792C203.847 442.293 204.999 442.017 206.171 441.98C207.343 441.943 208.51 442.147 209.601 442.579C210.691 443.01 211.681 443.66 212.511 444.489C213.34 445.318 213.991 446.308 214.424 447.398C214.856 448.488 215.061 449.655 215.025 450.827C214.99 451.999 214.714 453.151 214.217 454.213C213.719 455.275 213.009 456.223 212.13 457L196.14 473ZM236.22 478.46L220.22 494.46C218.598 496.012 216.433 496.867 214.189 496.843C211.944 496.818 209.798 495.916 208.211 494.33C206.623 492.743 205.719 490.598 205.693 488.354C205.666 486.109 206.52 483.943 208.07 482.32L222.75 467.65C223.19 467.21 223.61 466.75 224.01 466.28L224.08 466.35C225.702 464.799 227.867 463.943 230.112 463.968C232.356 463.992 234.502 464.894 236.09 466.481C237.678 468.067 238.581 470.212 238.608 472.457C238.634 474.701 237.78 476.867 236.23 478.49L236.22 478.46ZM376.58 424.86C374.587 426.876 371.907 428.066 369.075 428.194C366.243 428.322 363.467 427.378 361.3 425.55L355.45 420.68C355.042 420.086 354.55 419.554 353.99 419.1L340.5 408.26C338.945 407.092 336.998 406.573 335.068 406.814C333.138 407.054 331.377 408.035 330.156 409.548C328.936 411.062 328.351 412.991 328.525 414.928C328.699 416.865 329.619 418.658 331.09 419.93L342.73 429.32C343.053 429.767 343.422 430.179 343.83 430.55C344.986 431.574 345.921 432.824 346.576 434.222C347.232 435.621 347.594 437.138 347.641 438.682C347.688 440.226 347.418 441.763 346.849 443.199C346.279 444.634 345.422 445.938 344.33 447.03L343.91 447.45C342.013 449.355 339.5 450.522 336.821 450.742C334.142 450.962 331.472 450.22 329.29 448.65L317.7 440.35L317.58 440.26L313.2 437.13C311.582 435.973 309.571 435.505 307.608 435.83C305.646 436.156 303.893 437.247 302.735 438.865C301.577 440.483 301.11 442.494 301.435 444.457C301.761 446.42 302.852 448.173 304.47 449.33L308.93 452.52C310.254 453.485 311.353 454.724 312.152 456.154C312.95 457.584 313.429 459.171 313.555 460.804C313.682 462.437 313.453 464.078 312.884 465.613C312.315 467.149 311.42 468.544 310.26 469.7L309.64 470.32C307.6 472.358 304.86 473.543 301.977 473.634C299.094 473.725 296.285 472.716 294.12 470.81L281.62 459.81C280.902 459.066 280.038 458.478 279.082 458.083C278.126 457.688 277.098 457.496 276.064 457.518C275.03 457.539 274.011 457.775 273.073 458.209C272.134 458.643 271.295 459.267 270.609 460.041C269.923 460.815 269.404 461.722 269.085 462.706C268.767 463.69 268.655 464.73 268.758 465.759C268.86 466.788 269.175 467.785 269.681 468.687C270.187 469.589 270.875 470.377 271.7 471L275.95 474.76C277.108 475.778 278.046 477.022 278.707 478.415C279.367 479.809 279.736 481.322 279.792 482.863C279.847 484.404 279.587 485.94 279.028 487.377C278.469 488.814 277.622 490.122 276.54 491.22L275.69 492.08C273.76 494.031 271.191 495.218 268.455 495.424C265.718 495.63 263 494.84 260.8 493.2L250 485.14C252.283 481.575 253.564 477.462 253.709 473.231C253.855 469.001 252.859 464.809 250.827 461.096C248.795 457.382 245.802 454.284 242.16 452.126C238.518 449.968 234.363 448.83 230.13 448.83H229.54C229.013 442.964 226.31 437.508 221.963 433.535C217.616 429.562 211.939 427.359 206.05 427.36H205.44C204.896 421.409 202.105 415.888 197.636 411.92C193.167 407.952 187.354 405.836 181.38 406C180.909 400.487 178.496 395.32 174.57 391.42C170.144 387.002 164.145 384.52 157.89 384.52C151.636 384.52 145.637 387.002 141.21 391.42L133.14 399.48L81.6402 370.48L119.12 275.64L153.06 295.93C153.953 296.465 154.948 296.808 155.981 296.937C157.014 297.066 158.063 296.978 159.06 296.68L187.58 288.19C192.345 286.786 197.367 286.486 202.266 287.313C207.164 288.139 211.81 290.071 215.85 292.96L219.79 295.8L179.7 325.55C176.726 327.759 174.306 330.629 172.633 333.935C170.961 337.241 170.081 340.89 170.063 344.595C170.046 348.3 170.891 351.958 172.533 355.279C174.174 358.6 176.567 361.494 179.52 363.73C185.091 367.913 191.796 370.314 198.756 370.619C205.715 370.924 212.604 369.119 218.52 365.44L250 345.63C253.66 352.93 260.5 362.85 272.38 368.96C286.15 376.04 302.89 376.22 322.19 369.5L375.19 407.67C376.522 408.632 377.629 409.871 378.435 411.302C379.242 412.733 379.727 414.322 379.86 415.959C379.992 417.597 379.767 419.243 379.201 420.785C378.635 422.327 377.74 423.728 376.58 424.89V424.86ZM386.22 397.1L327.73 355C326.715 354.271 325.534 353.807 324.294 353.65C323.054 353.493 321.795 353.648 320.63 354.1C303.93 360.58 290.06 361.1 279.38 355.69C265.24 348.5 260.91 332.78 260.87 332.69C260.578 331.546 260.02 330.487 259.241 329.599C258.462 328.711 257.485 328.02 256.389 327.582C255.292 327.143 254.108 326.97 252.931 327.075C251.755 327.181 250.621 327.563 249.62 328.19L210.54 352.7C207.201 354.775 203.312 355.79 199.385 355.612C195.458 355.433 191.677 354.07 188.54 351.7C187.443 350.872 186.555 349.799 185.945 348.567C185.335 347.335 185.022 345.977 185.028 344.603C185.035 343.228 185.362 341.874 185.984 340.648C186.606 339.422 187.505 338.358 188.61 337.54L253.15 289.64C256.75 286.975 260.861 285.081 265.227 284.076C269.592 283.071 274.117 282.977 278.52 283.8L347 296.66C348.557 296.959 350.169 296.752 351.6 296.07L393.16 276.33L432.03 374.69L386.22 397.1ZM452.67 386.04L399.32 251.04L417.58 244.53L441.51 312.68C442.173 314.558 443.555 316.095 445.352 316.954C447.148 317.813 449.212 317.923 451.09 317.26C452.968 316.597 454.505 315.215 455.364 313.419C456.223 311.622 456.333 309.558 455.67 307.68L431.67 239.46L444.12 235.03L494.89 367.78L452.67 386.04Z" fill="#9a9cab"/>
<path d="M256 235C279.239 235 301.957 228.109 321.28 215.198C340.602 202.287 355.663 183.936 364.556 162.465C373.449 140.995 375.776 117.37 371.242 94.5769C366.709 71.7842 355.518 50.8477 339.085 34.415C322.652 17.9823 301.716 6.79155 278.923 2.25778C256.13 -2.27598 232.505 0.0509109 211.035 8.94421C189.564 17.8375 171.213 32.8978 158.302 52.2206C145.391 71.5433 138.5 94.2607 138.5 117.5C138.534 148.652 150.925 178.519 172.953 200.547C194.981 222.575 224.848 234.966 256 235ZM256 15.0001C276.273 15.0001 296.09 21.0116 312.946 32.2744C329.802 43.5373 342.94 59.5456 350.698 78.275C358.456 97.0044 360.485 117.614 356.53 137.497C352.576 157.38 342.813 175.644 328.478 189.978C314.144 204.313 295.88 214.076 275.997 218.031C256.114 221.986 235.504 219.956 216.775 212.198C198.046 204.44 182.037 191.302 170.774 174.446C159.512 157.59 153.5 137.773 153.5 117.5C153.529 90.3243 164.338 64.2699 183.554 45.0538C202.77 25.8376 228.824 15.0292 256 15.0001Z" fill="#9a9cab"/>
<path d="M256 205C273.306 205 290.223 199.868 304.612 190.254C319.002 180.639 330.217 166.973 336.839 150.985C343.462 134.996 345.195 117.403 341.819 100.43C338.443 83.4563 330.109 67.8653 317.872 55.6282C305.635 43.3911 290.044 35.0575 273.07 31.6813C256.097 28.3051 238.504 30.0379 222.515 36.6606C206.527 43.2832 192.861 54.4983 183.246 68.8876C173.632 83.2769 168.5 100.194 168.5 117.5C168.526 140.698 177.754 162.939 194.157 179.343C210.561 195.746 232.802 204.974 256 205ZM256 45C270.339 45 284.356 49.2521 296.279 57.2185C308.201 65.1849 317.494 76.5078 322.981 89.7555C328.469 103.003 329.904 117.58 327.107 131.644C324.31 145.708 317.405 158.626 307.265 168.765C297.126 178.905 284.208 185.81 270.144 188.607C256.08 191.404 241.503 189.969 228.255 184.481C215.008 178.994 203.685 169.701 195.718 157.779C187.752 145.856 183.5 131.839 183.5 117.5C183.521 98.2783 191.166 79.85 204.758 66.2582C218.35 52.6664 236.778 45.0212 256 45ZM406.94 117.5C406.94 118.485 407.134 119.46 407.511 120.37C407.888 121.28 408.44 122.107 409.137 122.803C409.833 123.5 410.66 124.052 411.57 124.429C412.48 124.806 413.455 125 414.44 125H456C457.989 125 459.897 124.21 461.303 122.803C462.71 121.397 463.5 119.489 463.5 117.5C463.5 115.511 462.71 113.603 461.303 112.197C459.897 110.79 457.989 110 456 110H414.44C412.451 110 410.543 110.79 409.137 112.197C407.73 113.603 406.94 115.511 406.94 117.5ZM398.86 83.31C400.193 83.3203 401.505 82.9752 402.66 82.31L433.82 64C435.544 62.9935 436.797 61.3435 437.305 59.4128C437.812 57.4821 437.531 55.4289 436.525 53.705C435.518 51.9811 433.868 50.7277 431.938 50.2204C430.007 49.7131 427.954 49.9935 426.23 51L395.06 69.34C393.624 70.1666 392.502 71.4453 391.869 72.9767C391.237 74.5081 391.129 76.2059 391.563 77.8049C391.997 79.4039 392.948 80.8143 394.269 81.8156C395.589 82.817 397.203 83.353 398.86 83.34V83.31ZM395.06 165.66L426.23 184C427.084 184.498 428.027 184.824 429.006 184.958C429.986 185.091 430.982 185.031 431.938 184.78C432.894 184.529 433.791 184.092 434.578 183.494C435.365 182.896 436.027 182.149 436.525 181.295C437.023 180.441 437.349 179.498 437.483 178.519C437.616 177.539 437.556 176.543 437.305 175.587C437.053 174.631 436.616 173.734 436.019 172.947C435.421 172.16 434.674 171.498 433.82 171L402.66 152.7C401.81 152.183 400.866 151.839 399.883 151.69C398.899 151.541 397.896 151.589 396.931 151.832C395.966 152.074 395.059 152.506 394.263 153.102C393.467 153.699 392.797 154.447 392.293 155.305C391.789 156.163 391.461 157.112 391.327 158.098C391.193 159.084 391.257 160.086 391.514 161.047C391.772 162.008 392.218 162.908 392.827 163.695C393.435 164.482 394.195 165.139 395.06 165.63V165.66ZM56 125H97.56C99.5491 125 101.457 124.21 102.863 122.803C104.27 121.397 105.06 119.489 105.06 117.5C105.06 115.511 104.27 113.603 102.863 112.197C101.457 110.79 99.5491 110 97.56 110H56C54.0109 110 52.1032 110.79 50.6967 112.197C49.2902 113.603 48.5 115.511 48.5 117.5C48.5 119.489 49.2902 121.397 50.6967 122.803C52.1032 124.21 54.0109 125 56 125ZM78.18 64L109.34 82.3C110.19 82.8175 111.134 83.1607 112.117 83.3098C113.101 83.4589 114.104 83.4108 115.069 83.1684C116.034 82.9259 116.941 82.494 117.737 81.8977C118.533 81.3014 119.203 80.5526 119.707 79.695C120.211 78.8374 120.54 77.888 120.673 76.9023C120.807 75.9165 120.743 74.914 120.486 73.9531C120.228 72.9922 119.782 72.0922 119.173 71.3053C118.565 70.5185 117.805 69.8606 116.94 69.37L85.77 51C84.9164 50.5017 83.973 50.1763 82.9937 50.0425C82.0143 49.9088 81.0183 49.9692 80.0623 50.2204C78.1316 50.7277 76.4815 51.9811 75.475 53.705C74.4685 55.4289 74.188 57.4821 74.6953 59.4128C75.2026 61.3435 76.4561 62.9935 78.18 64ZM109.34 152.73L78.18 171C76.4561 172.007 75.2026 173.657 74.6953 175.587C74.188 177.518 74.4685 179.571 75.475 181.295C76.4815 183.019 78.1316 184.272 80.0623 184.78C81.993 185.287 84.0461 185.007 85.77 184L116.94 165.69C117.805 165.199 118.565 164.542 119.173 163.755C119.782 162.968 120.228 162.068 120.486 161.107C120.743 160.146 120.807 159.144 120.673 158.158C120.54 157.172 120.211 156.223 119.707 155.365C119.203 154.507 118.533 153.759 117.737 153.162C116.941 152.566 116.034 152.134 115.069 151.892C114.104 151.649 113.101 151.601 112.117 151.75C111.134 151.899 110.19 152.243 109.34 152.76V152.73Z" fill="#9a9cab"/>
<path d="M239.17 150.119C239.873 150.875 240.724 151.478 241.67 151.89C242.617 152.302 243.638 152.515 244.67 152.515C245.702 152.515 246.723 152.302 247.67 151.89C248.616 151.478 249.467 150.875 250.17 150.119L301.51 95.1187C302.182 94.3964 302.706 93.5488 303.051 92.6242C303.396 91.6996 303.555 90.7161 303.52 89.73C303.484 88.7438 303.255 87.7742 302.845 86.8767C302.435 85.9791 301.852 85.171 301.13 84.4987C300.408 83.8263 299.56 83.3028 298.636 82.958C297.711 82.6132 296.728 82.4539 295.741 82.4892C294.755 82.5245 293.786 82.7536 292.888 83.1636C291.991 83.5736 291.182 84.1564 290.51 84.8787L244.66 133.999L221.48 109.169C220.122 107.71 218.24 106.85 216.249 106.779C214.257 106.708 212.319 107.431 210.86 108.789C209.401 110.147 208.542 112.028 208.471 114.02C208.399 116.012 209.122 117.95 210.48 119.409L239.17 150.119Z" fill="#9a9cab"/>
</g>
<defs>
<clipPath id="clip0_872_221">
<rect width="512" height="512" fill="white"/>
</clipPath>
</defs>
</svg>