<svg width="30" height="30" viewBox="0 0 512 512" fill="#9a9cab" xmlns="http://www.w3.org/2000/svg">
<path d="M496.264 256H423.464C421.342 256 419.307 256.843 417.807 258.343C416.307 259.843 415.464 261.878 415.464 264H353.696L299.256 239.808C324.658 229.996 345.968 211.837 359.684 188.313C373.401 164.789 378.709 137.299 374.736 110.36C370.763 83.4204 357.746 58.6331 337.823 40.0701C317.899 21.5071 292.255 10.2724 265.102 8.21148C237.949 6.15058 210.903 13.3861 188.406 28.7294C165.909 44.0727 149.3 66.6113 141.306 92.6426C133.313 118.674 134.411 146.65 144.42 171.975C154.429 197.299 172.754 218.467 196.384 232H192C189.878 232 187.843 232.843 186.343 234.343C184.843 235.843 184 237.878 184 240V256H88C88 253.878 87.1571 251.843 85.6569 250.343C84.1566 248.843 82.1217 248 80 248H16C13.8783 248 11.8434 248.843 10.3431 250.343C8.84285 251.843 8 253.878 8 256V384C8 386.121 8.84285 388.156 10.3431 389.657C11.8434 391.157 13.8783 392 16 392H80C82.1217 392 84.1566 391.157 85.6569 389.657C87.1571 388.156 88 386.121 88 384H125.368L130.968 388.096L113.6 411.2C112.961 412.053 112.499 413.025 112.241 414.058C111.984 415.092 111.935 416.167 112.098 417.22C112.261 418.273 112.633 419.283 113.192 420.19C113.751 421.098 114.485 421.884 115.352 422.504L227.352 502.504C229.051 503.718 231.159 504.22 233.223 503.901C235.287 503.583 237.145 502.47 238.4 500.8L254.592 479.2L275.256 494.4C276.95 495.655 279.07 496.191 281.157 495.892C283.244 495.592 285.128 494.481 286.4 492.8L304.672 468.432L307.072 470.312C307.911 470.967 308.872 471.448 309.899 471.727C310.926 472.005 311.999 472.077 313.054 471.936C314.109 471.795 315.125 471.445 316.043 470.906C316.961 470.368 317.762 469.652 318.4 468.8L336.672 444.432L339.072 446.312C339.911 446.967 340.872 447.448 341.899 447.727C342.926 448.005 343.999 448.077 345.054 447.936C346.109 447.795 347.125 447.445 348.043 446.906C348.961 446.368 349.762 445.652 350.4 444.8L368.672 420.432L371.072 422.312C371.911 422.967 372.872 423.448 373.899 423.727C374.926 424.005 375.999 424.077 377.054 423.936C378.109 423.795 379.125 423.445 380.043 422.906C380.961 422.368 381.762 421.652 382.4 420.8L404 392H415.464C415.464 394.121 416.307 396.156 417.807 397.657C419.307 399.157 421.342 400 423.464 400H496.264C498.386 400 500.421 399.157 501.921 397.657C503.421 396.156 504.264 394.121 504.264 392V264C504.264 261.878 503.421 259.843 501.921 258.343C500.421 256.843 498.386 256 496.264 256ZM72 376H24V264H72V376ZM152 128C151.979 111.272 155.994 94.7855 163.704 79.94C171.413 65.0945 182.59 52.3278 196.286 42.723C209.982 33.1182 225.792 26.9588 242.376 24.7674C258.96 22.5761 275.828 24.4174 291.548 30.1352C307.269 35.853 321.378 45.2785 332.679 57.612C343.98 69.9454 352.139 84.823 356.464 100.982C360.789 117.141 361.152 134.105 357.523 150.435C353.893 166.765 346.379 181.978 335.616 194.784C334.815 182.181 331.043 169.946 324.606 159.081C318.17 148.216 309.252 139.029 298.584 132.272C305.534 124.134 310.006 114.176 311.472 103.575C312.938 92.9749 311.336 82.1765 306.856 72.4583C302.375 62.74 295.204 54.509 286.191 48.7397C277.178 42.9703 266.701 39.9041 256 39.9041C245.299 39.9041 234.822 42.9703 225.809 48.7397C216.796 54.509 209.625 62.74 205.144 72.4583C200.664 82.1765 199.062 92.9749 200.528 103.575C201.994 114.176 206.466 124.134 213.416 132.272C202.748 139.029 193.83 148.216 187.394 159.081C180.957 169.946 177.185 182.181 176.384 194.784C160.626 176.1 151.988 152.442 152 128ZM216 95.9997C216 88.0884 218.346 80.3548 222.741 73.7769C227.136 67.1989 233.384 62.072 240.693 59.0445C248.002 56.017 256.044 55.2249 263.804 56.7683C271.563 58.3117 278.69 62.1213 284.284 67.7154C289.878 73.3095 293.688 80.4368 295.231 88.1961C296.775 95.9553 295.983 103.998 292.955 111.307C289.928 118.616 284.801 124.863 278.223 129.258C271.645 133.654 263.911 136 256 136C245.395 135.987 235.228 131.769 227.73 124.27C220.231 116.771 216.013 106.604 216 95.9997ZM192 209.808V200C192.034 188.332 195.256 176.895 201.319 166.926C207.382 156.958 216.055 148.836 226.4 143.44C235.262 149.026 245.524 151.99 256 151.99C266.476 151.99 276.738 149.026 285.6 143.44C295.945 148.836 304.618 156.958 310.681 166.926C316.744 176.895 319.966 188.332 320 200V209.808C301.764 224.182 279.22 231.999 256 231.999C232.78 231.999 210.236 224.182 192 209.808ZM143.808 397.6L157.984 408L145.6 424.488L131.272 414.248L143.808 397.6ZM213.408 448.856L201.64 464.48L187.312 454.248L199.2 438.4L213.408 448.856ZM174.328 444.968L158.688 433.768L170.888 417.504L186.352 428.896L174.328 444.968ZM230.328 484.968L214.696 473.768L226.288 458.312L241.752 469.704L230.328 484.968ZM374.488 404.688L308.888 353.688L299.064 366.312L356.016 410.616L342.464 428.688L276.864 377.688L267.04 390.312L323.992 434.616L310.44 452.688L244.84 401.688L235.016 414.312L291.968 458.616L278.4 476.848L132.744 369.6C131.375 368.573 129.712 368.012 128 368H88V272H184V288C184 290.121 184.843 292.156 186.343 293.657C187.843 295.157 189.878 296 192 296H261.464L388.664 385.792L374.488 404.688ZM402.544 376L268.616 281.464C267.266 280.511 265.653 279.999 264 280H200V248H278.304L348.752 279.312C349.775 279.766 350.881 280 352 280H415.464V376H402.544ZM488.264 384H431.464V272H488.264V384Z" />
</svg>